<?xml version="1.0" encoding="UTF-8"?>
<svg id="Layer_1" xmlns="http://www.w3.org/2000/svg" version="1.1" viewBox="0 0 434.1 103.1">
  <!-- Generator: Adobe Illustrator 29.5.0, SVG Export Plug-In . SVG Version: 2.1.0 Build 137)  -->
  <path d="M55.1,47.1l-23.3,8.5c-.4,0-.6.5-.6.9v15.2c0,.7.7,1.1,1.3.9l21.4-7.8c1.5-.6,2.6-2,2.6-3.6v-13.2c-.2-.7-.8-1.2-1.4-.9ZM56.3,78.3l-29,10.6c-5.7,2.1-11.7-2.1-11.7-8.2V.1H0v103h56.3v-24.8ZM31.1.1v35.7c0,2.7,2.7,4.6,5.2,3.6l23.9-8.7c5.7-2.1,11.7,2.1,11.7,8.2v64.1h31.1V.1H31.1Z" fill="#fff"/>
  <g>
    <path d="M144.4,79.5c1.3-.3,4.7-.7,7.4-.7V28.6c-2.7,0-6.1-.5-7.4-.7v-5.3h24.9c11.6,0,20.6,4.1,20.6,15.3s-4.4,12.3-11.2,14.1v.2c7.7,1.3,13.9,6.4,13.9,15,0,12.5-9.6,17.6-23.5,17.6h-24.6v-5.3h0ZM160.1,49.4h8.2c9.1,0,13-3.6,13-10.6s-4.5-9.9-12.8-9.9h-8.4v20.5ZM160.1,78.3h8.6c10.4,0,15.1-3.5,15.1-11.2s-4.3-11.7-14.7-11.7h-9.1v22.9h0Z" fill="#fff"/>
    <path d="M198.7,62.9c0-14.9,8.8-24.2,21.3-24.2s17.5,7.6,17.5,19.4-.1,3.4-.2,4.4h-30.1c.1,10.6,5.1,17,14.6,17s9.4-2.3,11.5-3.8l2.9,5.6c-2.3,1.6-7.5,4.6-15.8,4.6-14.1,0-21.7-9.6-21.7-23ZM229.2,56.9c0-6.6-2.6-12.1-10-12.1s-11,4.8-11.8,12.1h21.8Z" fill="#fff"/>
    <path d="M242,79.5c1.3-.3,4.6-.7,7.3-.7v-33.2c-3-.3-5.9-.4-7.3-.4v-5.2c2.5-.4,8.9-.7,15.4-.7l-.4,8.2h.2c1.7-3.9,5.8-8.8,11.8-8.8s4.4.7,5,.9l-2,7.4c-.6-.3-1.8-.8-4.1-.8-6.1,0-10.1,6.6-10.8,8.1v24.4c2.7,0,6.9.5,8.2.7v5.3h-23.3v-5.2Z" fill="#fff"/>
    <path d="M273,79.5c1.3-.3,4.5-.7,7.2-.7V23.8c-3-.3-5.9-.4-7.3-.4v-5.4c2.6-.3,9-.7,15.6-.7l-.5,7.4v54.1c2.6,0,5,.5,6.4.7v5.3h-21.4v-5.3ZM287.5,62.3l16.2-16.5c-2.2-.2-4.6-.5-5.5-.7v-5.2h21.3v5.2c-1.2.3-4.2.7-6.9.7l-24.7,24.4-.4-7.9Z" fill="#fff"/>
    <path d="M325.9,79.5c1.3-.3,4.5-.7,7.2-.7V23.8c-3-.3-5.9-.4-7.3-.4v-5.4c2.6-.3,9-.7,15.6-.7l-.5,7.4v54.1c2.7,0,5.9.5,7.2.7v5.3h-22.2v-5.3h0Z" fill="#fff"/>
    <path d="M349.7,62.9c0-14.9,8.8-24.2,21.3-24.2s17.5,7.6,17.5,19.4-.1,3.4-.2,4.4h-30.1c.1,10.6,5.1,17,14.6,17s9.4-2.3,11.5-3.8l2.9,5.6c-2.3,1.6-7.5,4.6-15.8,4.6-14,0-21.7-9.6-21.7-23ZM380.2,56.9c0-6.6-2.6-12.1-10-12.1s-11,4.8-11.8,12.1h21.8Z" fill="#fff"/>
    <path d="M393.3,62.9c0-14.9,8.8-24.2,21.3-24.2s17.5,7.6,17.5,19.4-.1,3.4-.2,4.4h-30.1c.1,10.6,5.1,17,14.6,17s9.4-2.3,11.5-3.8l2.9,5.6c-2.3,1.6-7.5,4.6-15.8,4.6-14,0-21.7-9.6-21.7-23ZM423.9,56.9c0-6.6-2.6-12.1-10-12.1s-11,4.8-11.8,12.1h21.8Z" fill="#fff"/>
    <path d="M299.5,57.4l8.3,13c1.8,2.9,3.8,5.5,5.4,7,2,1.8,4.1,1.7,6.2,1.7s1.5,0,2.3-.2l.4,5.7c-1.2.3-3.2.6-4.6.6-4.4,0-7.3-1.1-9.6-3.1-1.7-1.5-3.6-4.2-5.2-6.6l-8.7-13.7,5.5-4.4Z" fill="#fff"/>
    <path d="M322.2,84.6" fill="#fff"/>
  </g>
</svg>