<?xml version="1.0" encoding="UTF-8"?>
<svg id="Layer_1" xmlns="http://www.w3.org/2000/svg" version="1.1" viewBox="0 0 860 835">
  <!-- Generator: Adobe Illustrator 29.5.0, SVG Export Plug-In . SVG Version: 2.1.0 Build 137)  -->
  <defs>
    <style>
      .st0 {
        fill: #fff;
      }
    </style>
  </defs>
  <path class="st0" d="M560,281c4.06-4.93,8.91-9.52,12.98-14.52,11.81-14.55,23.38-29.3,35.01-43.99.38-2.24-.77-1.46-2.27-1.27-11.97,1.47-24.98,9.63-36.46,12.56-.96.24-4.45,1.11-4.26-.75,8.22-2.8,18.25-8.07,25.32-13.18,2.35-1.7,11.93-8.37,9.57-11.74l-251.9-96.08,251.99,85.99c2.9-2.9-24.37-29.18-27.47-32.02-10.65-9.8-24.41-18.76-34.43-28.57-.64-.63-3.17-2.29-2.09-3.4,1.59-1.63,33.29,24.91,37.27,26.22,9.7,5.97,19.38,13.28,29.42,18.58,7.08,3.74,20.48,12.15,23.82.22l12.47-59.01c-.2,16.48-1.64,33.01-3.03,49.45l1.03,9.53,61-125.99c-13.64,39.21-32.91,77.48-45.45,117.04-1.27,4.01-6.22,18-4.1,21.02,2.52,3.59,18.6-4.28,22.24-5.89,25.42-11.25,49.04-26.34,73.31-39.69.86-.47,5.8-3.81,6-1.5-20.89,14.35-41.87,28.99-61.89,44.62-2.92,2.28-35.45,27.57-34.1,29.38l154,59-158-48.99c-.63,8.2,1.8,16.09,3.49,24.02,8.29,38.77,23.36,79.51,30.06,117.94.19,1.1,1.15,5.02-.05,5.06-6.1-18.8-10.93-38.03-17.23-56.78-5.93-17.68-23.4-68.26-38.32-77.68-3.05-1.92-4.57-1.81-8.01-1.11-10.01,2.05-39.81,29.11-47.46,37.55-1.13,1.24-2.5,2.04-2.48,4.02-3.81.44-11.47,7.7-12,11-1.58-.28-2.61,1.4-3.54,2.43-5.74,6.31-13.41,15.56-19.43,21.09-1.34,1.23-2.06,1.81-4.02,1.47,7.72-9.27,15.32-18.69,23-27.99,2.21-2.68,4.19-5.8,6-8Z"/>
  <g>
    <path class="st0" d="M349.5,281l32.51,302.99,40.42-302.06,93.07-.94c4.89.92,3.46,8,0,8h-22c-.11,0-1.5,1.39-1.5,1.5v482.5h21.5c3.37,0,2.57,4.64,2.5,7h-114.5c-.28,0-1.03-1.15-1.5-1.52-.89-1.44,2.98-5.48,3.5-5.48h23.5v-457l-60.66,464.05-28.29-.1-49.05-455.95v425.5c0,1.66,2.25,10.01,3.11,11.89,1.87,4.07,7.29,9.19,11.63,10.37,7.18,1.95,19.76-2.18,17.26,8.24h-66c-.28-5.97,7.63-6.46,11.71-8.79,5.35-3.05,8.85-7.35,10.76-13.24.72-2.22,2.53-9.61,2.53-11.47v-457.5h-20.5c-2.53,0-3.59-8-1-8h91Z"/>
    <path class="st0" d="M33.5,289c-3.41-.95-5.75-7.14.95-8.05,64.2,5.08,138.96-20.13,180.36,43.74,26.43,40.77,24.87,120.04-4.39,159.23-16.34,21.88-30.12,24.9-52.47,36.57-1.11.58-2.44.02-1.96,2,.3,1.22,19.46,8.12,23.03,9.99,66.7,34.97,70.11,137.35,39.16,197.21-10.46,20.23-43.95,50.31-67.69,50.31H31.5c-3.42,0-.2-7,3-7h20.5v-484c-5.7-1.02-16.54,1.38-21.5,0ZM123,518h21.5c1.22,0,8.44-2.34,9.85-3.15,7.32-4.22,9.15-12.47,9.69-20.31,4.1-58.93-3.15-122.6-.06-182.03-1.54-8.5-2.35-16.09-10.98-20.02-.92-.42-7.11-2.5-7.5-2.5h-22.5v228ZM123,773h14.5c13.4,0,26.82-14,26.54-27.46l-.05-200.02c-.36-3.92-2.02-10.45-4.52-13.48-1.24-1.5-7.55-5.04-8.96-5.04h-27.5v246Z"/>
    <path class="st0" d="M570,281l76.47.03c6.03,1.16,2.29,7.97,1.03,7.97h-21.5v484h19.5c.51,0,4.39,4.03,3.5,5.48-.46.37-1.22,1.52-1.5,1.52h-115.5c-1.15-1.92,2.31-7,3.5-7h22.5v-481c.53-3.3,8.19-10.56,12-11Z"/>
    <path class="st0" d="M560,281c-1.81,2.2-3.79,5.32-6,8-4.38-.82-18.49,2.23-19.86-2.71-2.53-9.14,21.04-3.95,25.86-5.29Z"/>
  </g>
</svg>