<?xml version="1.0" encoding="UTF-8"?>
<svg id="Layer_1" data-name="Layer 1" xmlns="http://www.w3.org/2000/svg" viewBox="0 0 1080 302.93">
  <defs>
    <style>
      .cls-1 {
        fill: #fff;
      }
    </style>
  </defs>
  <path class="cls-1" d="M482.9,198.55v13.45c.03,6.56-1.27,13.06-3.81,19.11-2.5,5.94-6.07,11.38-10.54,16.03-4.48,4.69-9.82,8.48-15.73,11.15-6.09,2.77-12.71,4.18-19.4,4.13-5.92,0-11.92-.81-18.03-2.44-6.06-1.61-11.7-4.52-16.5-8.55-4.88-4.08-8.92-9.33-12.06-15.73-3.17-6.42-4.75-14.62-4.75-24.6v-119.76c0-7.12,1.23-13.74,3.67-19.86,2.34-5.95,5.87-11.36,10.39-15.88,4.59-4.55,10.05-8.13,16.04-10.53,6.22-2.55,13.08-3.81,20.63-3.81,14.66,0,26.58,4.8,35.75,14.37,4.56,4.81,8.14,10.47,10.54,16.65,2.54,6.4,3.8,13.39,3.8,20.93v12.22h-31.16v-10.39c0-6.11-1.74-11.41-5.2-15.89s-8.15-6.72-14.05-6.72c-7.75,0-12.89,2.39-15.44,7.18-2.55,4.8-3.83,10.85-3.83,18.17v111.21c0,6.32,1.37,11.61,4.13,15.89,2.75,4.28,7.69,6.41,14.81,6.41,2.04,0,4.23-.35,6.57-1.07,2.4-.74,4.63-1.93,6.57-3.51,1.83-1.63,3.36-3.86,4.59-6.72,1.23-2.84,1.82-6.4,1.82-10.69v-10.7h31.16,0ZM504.02,260.56V43.04h31.16v93.18h38.49V43.04h31.16v217.53h-31.16v-96.86h-38.49v96.85h-31.16ZM619.33,260.56l48.59-217.53h25.97l48.58,217.53h-31.16l-9.16-46.74h-42.47l-9.17,46.74h-31.16ZM696.32,184.49l-15.27-78.82h-.62l-15.28,78.82s31.16,0,31.17,0ZM757.39,260.56V43.04h50.11c36.66,0,54.99,21.28,54.99,63.86,0,12.84-1.99,23.74-5.95,32.7-3.97,8.97-10.96,16.19-20.93,21.68l33.6,99.3h-32.99l-29.02-92.89h-18.63v92.88s-31.18,0-31.18,0ZM788.55,72.38v67.82h17.72c5.5,0,9.87-.77,13.13-2.29,3.12-1.41,5.77-3.69,7.64-6.57,1.63-2.84,2.76-6.36,3.36-10.54.62-4.17.91-9.01.91-14.5s-.29-10.34-.91-14.5c-.62-4.18-1.83-7.8-3.67-10.85-3.86-5.7-11.2-8.55-22-8.55h-16.19.02s0,0,0,0ZM901.92,260.56V72.38h-36.05v-29.34h103.26v29.32h-36.05v188.19h-31.17ZM950.88,260.56l48.57-217.53h25.97l48.59,217.53h-31.17l-9.16-46.74h-42.47l-9.17,46.74h-31.17.02,0ZM1027.87,184.49l-15.28-78.82h-.61l-15.28,78.82h31.17,0ZM303.54,157.65c-3.11,79.5-68.54,143.01-148.8,143.01S5.83,233.99,5.83,151.75,72.5,2.84,154.74,2.84s145.7,63.5,148.79,143.01h-151.49c-3.27-15.59-18.56-25.57-34.15-22.29-13.34,2.8-22.89,14.56-22.91,28.19,0,15.93,12.93,28.83,28.86,28.82,13.64,0,25.4-9.57,28.2-22.91h151.49Z"/>
</svg>