<?xml version="1.0" encoding="UTF-8"?>
<svg id="Layer_1" xmlns="http://www.w3.org/2000/svg" version="1.1" viewBox="0 0 517.17 100">
  <!-- Generator: Adobe Illustrator 29.5.0, SVG Export Plug-In . SVG Version: 2.1.0 Build 137)  -->
  <defs>
    <style>
      .st0 {
        fill: #fff;
      }
    </style>
  </defs>
  <path class="st0" d="M372.94,23.56V0h-101.39v99.98h101.39v-24.08h-67.22v-16.72h52.7v-20.1h-52.7v-15.52h67.22ZM190.23,66.38h-2.77L158.38,0h-39.28l45.91,100,44.93-.12c.61-.02,1.16-.4,1.39-.97L253.54,0h-36.05l-27.26,66.38ZM482.46.08v56.75L428.55.11h-37.59v99.82h34.39v-60.59l58.09,60.61h33.41V.08h-34.39ZM-.33,0v99.98h101.39v-24.08H33.85v-16.72h52.7v-20.1h-52.7v-15.52h67.22V0H-.33Z"/>
</svg>