<?xml version="1.0" encoding="UTF-8"?>
<svg id="Layer_2" data-name="Layer 2" xmlns="http://www.w3.org/2000/svg" viewBox="0 0 1080 141.58">
  <defs>
    <style>
      .cls-1 {
        fill: #fff;
      }
    </style>
  </defs>
  <g id="TooLost">
    <g>
      <path class="cls-1" d="M186.67,31.55c36.54-3.52,92.14,11.99,88.69,57.87-4.7,62.62-127.48,70.35-148.68,12.15-14.25-39.12,25.65-66.72,59.99-70.02ZM195.32,62.37c-35.39,3.83-30.46,50.13,8.39,46.91,35.98-2.98,29.99-51.07-8.39-46.91Z"/>
      <path class="cls-1" d="M345.61,31.55c36.54-3.52,92.14,11.99,88.69,57.87-4.7,62.62-127.48,70.35-148.68,12.15-14.25-39.12,25.65-66.72,59.99-70.02ZM354.26,62.37c-35.39,3.83-30.46,50.13,8.39,46.91,35.98-2.98,29.99-51.07-8.39-46.91Z"/>
      <path class="cls-1" d="M678.89,31.55c36.54-3.52,92.14,11.99,88.69,57.87-4.7,62.62-127.48,70.35-148.68,12.15-14.25-39.12,25.65-66.72,59.99-70.02ZM687.54,62.37c-35.39,3.83-30.46,50.13,8.39,46.91,35.98-2.98,29.99-51.07-8.39-46.91Z"/>
      <polygon class="cls-1" points="155.08 2.37 155.08 36.09 102.1 36.09 102.1 139.16 52.98 139.16 52.98 36.09 0 36.09 0 2.37 155.08 2.37"/>
      <polygon class="cls-1" points="524.97 2.37 524.97 104.48 610.7 104.48 610.7 138.19 475.85 138.19 475.85 2.37 524.97 2.37"/>
      <path class="cls-1" d="M884.26,42.84l-16.95,23.94c-10.34-3.89-40.96-14.5-49.88-7.47-4.1,3.24-.31,5.87,2.99,7.38,18.25,8.32,57.77,7.15,65.3,31.03,4.02,12.77-2.05,26.25-12.7,33.56-26.09,17.92-80.53,10.1-106.82-5.59l17-23.11c11.49,5.23,23.53,9.73,36.16,11.4,5.13.68,22.28,2.96,23.24-4.37.15-3.55-3.24-4.11-6.01-5.15-17.97-6.75-60.14-7.82-63.81-32.51-3.52-23.65,14.58-35.61,35.37-39.26,25.2-4.42,52.83-.16,76.12,10.15Z"/>
      <path class="cls-1" d="M955.54,3.34v26.97h31.79v29.86h-31.79v39.01c0,3.93,3.49,7.22,10.11,7.22h21.67v31.79h-46.72c-12.31,0-33.23-12.79-33.23-26.49v-51.53h-16.38v-29.86h16.38V3.34h48.16Z"/>
      <g>
        <path class="cls-1" d="M1060.43,29.27l-5.15-6.16h-5.74v6.16h-5.66V9.76h13.68c4.99,0,8.86,2.2,8.86,6.66,0,3.26-2.06,5.32-5.13,6.21l5.74,6.63h-6.61ZM1057.14,18.99c2.03,0,3.51-.56,3.51-2.45s-1.48-2.45-3.51-2.45h-7.64v4.9h7.64Z"/>
        <path class="cls-1" d="M1054.74,2.89c12.34,0,22.38,7.54,22.38,16.81s-10.04,16.81-22.38,16.81-22.38-7.54-22.38-16.81,10.04-16.81,22.38-16.81M1054.74,0c-13.95,0-25.26,8.82-25.26,19.7s11.31,19.7,25.26,19.7,25.26-8.82,25.26-19.7-11.31-19.7-25.26-19.7h0Z"/>
      </g>
    </g>
  </g>
</svg>