<?xml version="1.0" encoding="UTF-8"?>
<svg id="Layer_1" data-name="Layer 1" xmlns="http://www.w3.org/2000/svg" viewBox="0 0 500 500">
  <g>
    <path d="M257.26,175.02l-42.48,15.64c-.73.18-1.09.92-1.09,1.66v27.97c0,1.29,1.28,2.02,2.37,1.66l39.02-14.35c2.74-1.1,4.74-3.68,4.74-6.62v-24.29c-.36-1.29-1.46-2.21-2.55-1.66Z"/>
    <path d="M259.45,232.42l-52.88,19.5c-10.39,3.86-21.33-3.86-21.33-15.09V88.54h-28.44v189.51h102.66v-45.63Z"/>
    <path d="M213.5,88.54v65.68c0,4.97,4.92,8.46,9.48,6.62l43.58-16.01c10.39-3.86,21.33,3.86,21.33,15.09v117.94h56.71V88.54h-131.1Z"/>
  </g>
  <g>
    <path d="M60.07,395.39c1.72-.4,6.21-.92,9.77-.92v-66.28c-3.56,0-8.05-.66-9.77-.92v-7h32.88c15.32,0,27.2,5.41,27.2,20.2,0,9.9-5.81,16.24-14.79,18.62v.26c10.17,1.72,18.35,8.45,18.35,19.8,0,16.5-12.68,23.24-31.03,23.24h-32.48l-.13-7h0ZM80.8,355.64h10.83c12.02,0,17.16-4.75,17.16-14s-5.94-13.07-16.9-13.07h-11.09v27.07ZM80.8,393.8h11.35c13.73,0,19.94-4.62,19.94-14.79,0-9.64-5.68-15.45-19.41-15.45h-12.02l.13,30.24h0Z"/>
    <path d="M131.76,373.47c0-19.67,11.62-31.95,28.12-31.95,14.52,0,23.11,10.03,23.11,25.61,0,1.45-.13,4.49-.26,5.81h-39.74c.13,14,6.73,22.45,19.28,22.45,6.6,0,12.41-3.04,15.18-5.02l3.83,7.39c-3.04,2.11-9.9,6.07-20.86,6.07-18.62,0-28.65-12.68-28.65-30.37ZM172.03,365.55c0-8.71-3.43-15.98-13.2-15.98-8.71,0-14.52,6.34-15.58,15.98h28.78Z"/>
    <path d="M188.93,395.39c1.72-.4,6.07-.92,9.64-.92v-43.84c-3.96-.4-7.79-.53-9.64-.53v-6.87c3.3-.53,11.75-.92,20.33-.92l-.53,10.83h.26c2.24-5.15,7.66-11.62,15.58-11.62,3.83,0,5.81.92,6.6,1.19l-2.64,9.77c-.79-.4-2.38-1.06-5.41-1.06-8.05,0-13.34,8.71-14.26,10.69v32.22c3.56,0,9.11.66,10.83.92v7h-30.76v-6.87Z"/>
    <path d="M229.86,395.39c1.72-.4,5.94-.92,9.51-.92v-72.62c-3.96-.4-7.79-.53-9.64-.53v-7.13c3.43-.4,11.88-.92,20.6-.92l-.66,9.77v71.43c3.43,0,6.6.66,8.45.92v7h-28.26v-7ZM249.01,372.68l21.39-21.79c-2.9-.26-6.07-.66-7.26-.92v-6.87h28.12v6.87c-1.58.4-5.55.92-9.11.92l-32.61,32.22-.53-10.43Z"/>
    <path d="M299.71,395.39c1.72-.4,5.94-.92,9.51-.92v-72.62c-3.96-.4-7.79-.53-9.64-.53v-7.13c3.43-.4,11.88-.92,20.6-.92l-.66,9.77v71.43c3.56,0,7.79.66,9.51.92v7h-29.31v-7h0Z"/>
    <path d="M331.13,373.47c0-19.67,11.62-31.95,28.12-31.95,14.52,0,23.11,10.03,23.11,25.61,0,1.45-.13,4.49-.26,5.81h-39.74c.13,14,6.73,22.45,19.28,22.45,6.6,0,12.41-3.04,15.18-5.02l3.83,7.39c-3.04,2.11-9.9,6.07-20.86,6.07-18.48,0-28.65-12.68-28.65-30.37ZM371.4,365.55c0-8.71-3.43-15.98-13.2-15.98-8.71,0-14.52,6.34-15.58,15.98h28.78Z"/>
    <path d="M388.7,373.47c0-19.67,11.62-31.95,28.12-31.95,14.52,0,23.11,10.03,23.11,25.61,0,1.45-.13,4.49-.26,5.81h-39.74c.13,14,6.73,22.45,19.28,22.45,6.6,0,12.41-3.04,15.18-5.02l3.83,7.39c-3.04,2.11-9.9,6.07-20.86,6.07-18.48,0-28.65-12.68-28.65-30.37ZM429.1,365.55c0-8.71-3.43-15.98-13.2-15.98-8.71,0-14.52,6.34-15.58,15.98h28.78Z"/>
    <path d="M264.85,366.21l10.96,17.16c2.38,3.83,5.02,7.26,7.13,9.24,2.64,2.38,5.41,2.24,8.19,2.24.79,0,1.98,0,3.04-.26l.53,7.53c-1.58.4-4.23.79-6.07.79-5.81,0-9.64-1.45-12.68-4.09-2.24-1.98-4.75-5.55-6.87-8.71l-11.49-18.09,7.26-5.81Z"/>
  </g>
</svg>