<?xml version="1.0" encoding="UTF-8"?>
<svg id="Layer_1" data-name="Layer 1" xmlns="http://www.w3.org/2000/svg" viewBox="0 0 500 500">
  <path d="M18.69,164.55c9.21.58,18.45.23,27.66.32,11.11-.08,22.24.25,33.34-.35-.07,5.4.12,10.81-.01,16.21.19,1.79-.56,3.1-2.2,3.91-1.46-5.22-3.03-11.48-8.59-13.79-8.21-3.3-17.3-1.49-25.92-1.94v34.99c6.79-.29,13.71.69,20.4-.59,4.46-1.21,5.62-6.13,6.29-10.09.64,0,1.9-.01,2.52-.02-.74,9.34-.36,18.7.06,28.05-.67,0-2,0-2.66-.01-.44-3.97-.27-9.61-4.89-11.17-7.12-1.41-14.49-.37-21.72-.67.01,8.59-.01,17.19-.02,25.78.15,3.41.06,7.44,2.67,10.03,2.78,2.29,6.6,2.19,9.99,2.37,6.56.01,13.39.23,19.63-2.13,5.71-2.24,8.21-8.27,10.5-13.49,1.08.17,2.15.35,3.23.53-2.12,6.38-3.89,12.88-5.27,19.46-21.66-.65-43.34-.3-65.01-.27v-3.37c2.82-.32,5.9-.03,8.49-1.41,3.12-2.05,2.95-6.23,3.1-9.52-.02-19.63-.06-39.27.01-58.89-.12-3.09.16-7.02-2.79-8.94-2.72-1.35-5.88-1.12-8.81-1.5v-3.52Z"/>
  <path d="M95.08,200c5.77-1.72,11.37-3.96,17.15-5.67.1,3.13.17,6.26.16,9.39,7.4-5.6,16.52-11.13,26.17-8.49,4.39.97,7.14,4.72,8.7,8.69,7.02-5.09,15.04-10.76,24.23-9.07,6.72.81,11.17,7.29,11.58,13.71.49,12.22-.25,24.48.34,36.7.54,3.83,5.17,2.71,7.91,2.97-.01,1.23-.02,2.46-.03,3.7-8.76-.59-17.56-.29-26.32-.21.01-1.17.02-2.34.05-3.5,2.73-.37,7.26,1.08,7.95-2.75.34-9.98.07-20.01.12-30-.09-4.83-1.12-10.93-6.16-13-6.72-2.6-13.38,1.76-18.99,5.04.03,11.52.03,23.04-.01,34.56.06,1.75-.13,3.64.84,5.19,2.29,1.34,5.05.77,7.58.95v3.71c-8.95-.52-17.94-.37-26.89-.13,0-1.19,0-2.38-.01-3.59,2.63-.36,6.4.94,7.93-1.93.44-10.26.03-20.54.19-30.8.05-4.92-1.14-11.09-6.29-13.09-6.73-2.42-13.27,1.92-18.87,5.18.12,12.62-.22,25.25.15,37.85.6,3.89,5.49,2.44,8.25,2.79-.01,1.25-.01,2.49-.02,3.74-9.04-.58-18.12-.38-27.17-.15v-3.6c2.59-.14,5.37.37,7.78-.84,1.27-2.31.8-5.08.93-7.61-.22-10.41.29-20.84-.25-31.23-.02-4.44-5.82-4.71-6.95-8.51Z"/>
  <path d="M218.1,195.41c10.57-3.13,24.03,2.89,26.22,14.32.2,2.39,1.43,5.57-.31,7.55-11.88.56-23.8,0-35.7.27-.39,9.92,2.12,21.79,11.75,26.73,8.32,4.33,17.67-.73,23.57-6.8.62.72,1.25,1.45,1.89,2.16-3.83,4.7-8,9.41-13.64,11.96-9.01,4.12-20.98,2.21-27.23-5.82-6.51-8.57-7.66-20.22-5.03-30.44,2.13-9.25,9.15-17.48,18.48-19.93ZM214.04,202.64c-2.93,2.76-4.15,6.72-5.15,10.49,6.37.07,12.76.01,19.14.07,1.89-.16,4.27.38,5.59-1.36.79-4.41-1.12-9.54-5.23-11.67-4.65-2.37-10.76-1.28-14.35,2.48Z"/>
  <path d="M258.87,200.06c4.29-1.8,8.26-4.36,12.72-5.74.13,4.39.1,8.79.06,13.18,3.37-5,7.02-10.65,13.12-12.48,3.49-1.12,8.23-.1,9.74,3.57,1.68,3.41-.16,8.35-4.07,9.13-3.83,1.19-6.6-3.56-10.42-2.76-4.55,1.19-8.36,5.55-8.04,10.4-.05,8.92.05,17.85-.03,26.76.16,1.91-.4,4.35,1.46,5.61,3.76.88,7.69.29,11.52.37l.09,3.75c-10.89-.4-21.81-.35-32.72-.03.01-.91.03-2.74.03-3.65,2.97-.37,7.1,1.17,9.06-1.8.42-12.24.1-24.52.16-36.77.47-4.12-5-4.06-6.67-6.82.64-1.68,2.64-1.89,4-2.71Z"/>
  <path d="M313.98,196.28c7.67-3.09,16.33-1.55,23.63,1.86.3,4.41.61,8.81.9,13.22-.73-.1-2.2-.34-2.94-.45-1.2-2.65-1.57-5.76-3.68-7.93-4.14-4.73-12.31-5.55-17.15-1.47-3.6,3.17-2.85,9.24.68,12.18,6.57,5.47,15.98,6.31,21.96,12.66,6.45,6.62,4.44,18.72-3.3,23.51-8.89,5.69-20.49,4.43-29.6-.16-.67-4.93-1.06-9.88-1.5-14.82.58-.2,1.76-.57,2.35-.76,1.09,3.64,2.24,7.43,4.81,10.34,3.86,4.7,11.03,6.29,16.5,3.68,5.1-2.57,5.71-10.17,1.7-13.97-4.34-4.21-10.47-5.59-15.53-8.66-4.29-2.31-7.91-6.28-8.67-11.23-1.78-7.37,2.8-15.39,9.83-18Z"/>
  <path d="M375.09,195c10.95-1.7,23.26,1.99,29.91,11.22,9.18,12.53,6.42,31.96-5.93,41.39-12.05,9.76-31.59,7.34-41.34-4.55-7.59-9.29-8.27-23.21-2.66-33.64,3.97-7.56,11.55-13.13,20.02-14.42ZM376.45,198.67c-4.39,1.16-7.71,4.7-9.69,8.64-5.27,10.48-4.64,23.44,1.02,33.63,2.34,4.08,5.98,7.8,10.72,8.84,5.78,1.48,12.04-1.48,15.12-6.49,7.33-11.43,6.45-27.2-1.14-38.29-3.43-5.04-9.98-8.26-16.02-6.33Z"/>
  <path d="M419.71,200.57c5.84-1.83,11.6-3.92,17.3-6.15.03,3.11.06,6.21.08,9.32,5.14-3.53,10.36-7.36,16.59-8.64,4.53-.86,9.68-.83,13.55,1.99,3.9,2.86,5.41,7.9,5.63,12.55.27,11.6-.2,23.21.16,34.81-.28,4.58,5.31,3.56,8.28,3.85v3.6c-8.95-.47-17.93-.32-26.89-.14-.01-1.16-.01-2.31-.01-3.47,2.53-.22,5.26.16,7.62-1.02,1.17-3.11.72-6.52.81-9.77-.21-8.92.24-17.86-.19-26.76-.09-4.36-3.6-8.18-7.89-8.79-6.48-1.38-12.31,2.61-17.7,5.59.09,12.31-.19,24.63.1,36.94-.05,4.66,5.51,3.56,8.58,3.82-.01.9-.02,2.72-.02,3.62-9.04-.49-18.11-.34-27.17-.15-.01-1.17-.01-2.32-.01-3.49,2.52-.24,5.34.35,7.61-1.05,1.3-3.06.68-6.51.82-9.75-.24-9.3.3-18.62-.24-27.91-.21-3.69-4.26-4.92-6.93-6.48-.02-.62-.08-1.89-.1-2.51Z"/>
  <path d="M89.74,288.89c6.42-4.42,15.88-3.85,21.27,1.99-.86.81-1.71,1.61-2.57,2.42-3.53-3.92-9.26-5.59-14.17-3.28-10.32,3.93-10.76,20.76-.86,25.44,5.37,2.79,12.06,1.1,15.76-3.59.66.51,1.99,1.53,2.65,2.05-5.07,6.8-15.32,7.73-22.09,3.01-9.17-6.22-9.09-21.79,0-28.03Z"/>
  <path d="M148.74,286.67c6.82-1.95,15.1.21,18.98,6.43,3.89,6.25,3.67,14.9-.81,20.78-6.18,7.81-19.66,8.07-25.95.27-7.34-8.59-3.82-24.7,7.78-27.48ZM148.63,289.96c-8.69,3.24-10.83,15.8-4.85,22.46,5,6,15.5,5.82,20.32-.29,4.27-5.48,4.01-14.1-.71-19.23-3.72-3.89-9.83-4.86-14.77-2.94Z"/>
  <path d="M343.22,288.9c6.53-4.44,15.96-3.78,21.81,1.55-.57.62-1.7,1.87-2.28,2.51-4.26-3.68-10.5-5.31-15.71-2.6-8.79,4.13-9.77,17.75-2.35,23.67,4.86,3.85,11.82,3.3,17.24,1.01-.06-3.5-.06-7.01-.05-10.5-2.6-.01-5.2-.02-7.81-.01v-2.89h10.99v15.5c-6.85,3.25-15.6,4.15-22.09-.38-8.86-6.41-8.7-21.58.23-27.85Z"/>
  <path d="M199.4,286.9c.8,0,2.38-.01,3.18-.01v29.2c4.94,0,9.88-.02,14.82.03l-.14,2.87c-5.96-.02-11.91,0-17.86-.02.01-10.69,0-21.38,0-32.07Z"/>
  <path d="M244.22,286.89h3.47v29.2c4.94,0,9.88-.01,14.82.03-.03.72-.1,2.15-.14,2.88-6.05-.03-12.1-.02-18.15-.02v-32.09Z"/>
  <path d="M289.32,286.89h19.66v2.89h-16.48v10.99c5.25,0,10.51,0,15.76.01-.07.75-.22,2.27-.29,3.02-5.15.37-10.32.06-15.47.15v12.14c5.78,0,11.57,0,17.35.01.01.72.01,2.15.02,2.87-6.86.02-13.71.01-20.55.01v-32.09Z"/>
  <path d="M396,286.91c6.65-.05,13.3-.01,19.96-.02v2.89h-16.48v10.99h15.31c.01.8.01,2.38.01,3.18h-15.32c0,4.04,0,8.08-.01,12.13,5.69.01,11.38.01,17.07.01v2.89c-6.84.01-13.67-.01-20.51.01-.06-10.7.01-21.38-.03-32.08Z"/>
</svg>