<?xml version="1.0" encoding="UTF-8"?>
<svg id="Layer_1" data-name="Layer 1" xmlns="http://www.w3.org/2000/svg" viewBox="0 0 500 500">
  <defs>
    <style>
      .cls-1 {
        fill-rule: evenodd;
      }
    </style>
  </defs>
  <path class="cls-1" d="M139.98,186.78s4.3-.71,6.07,1.14c1.77,1.85.61,5.68-1.74,5.74-2.35.06-4.52.5-6.07-1.14-1.54-1.64-1.13-4.93,1.74-5.74ZM186.62,212.9c-.41.04-.85-.15-1.3-.47-3.08-4.29-4.19-18.97-5.61-19.85-1.47-.91-6.78,8.13-17.34,7.16-4.42-.41-8.91-3.27-11.56-5.25.25-3.34.29-11.12,6.87-8.59,4,1.54,10.84,5.76,16.85-1.82,6.64-8.39,10.31-5.95,12.51-4.13,2.2,1.82.73,11.31,4.01,8.66,3.28-2.65,16.51-19.11,16.51-19.11,0,0,10.25-10.33,11.81.53,1.57,10.86,8.25,22.9,10.02,22.56,1.77-.34,22.38-42.23,25.33-44.94,2.95-2.7,12.89-2.35,12.42,4.58-.47,6.93-1.48,50.03-1.48,50.03,0,0-1.17,12.14.73,5.65.79-2.69,1.63-5.12,2.69-7.95,5.09-16.28,13.75-44.1,18.07-58.44.99-3.43,1.85-6.37,2.51-8.64h0c.26-1.06.51-1.89.77-2.63.36-1.22.61-2.02.68-2.23.19-.54.73-.95,1.49-1.25.76-.48,1.58-.51,2.51-.53,2.4-.21,5.48.1,8.25.89.81.03,1.69.29,2.52.89h0s.05.03.12.08c.02.01.04.02.06.04.17.12.45.36.78.75,0,.01.02.03.03.04.13.17.27.36.41.58,1.55,2.27,2.5,6.46,1.55,13.88-2.38,18.52-4.22,56.62-4.22,56.62,0,0-.37,1.82,3.45-6.2.13-.28.3-.52.46-.78.21-.14.44-.33.72-.68,2.36-2.81,8.7-4.46,13.09-4.43,1.85.22,3.4.69,4.33,1.28,1.74,2.64.71,12.39.71,12.39-3.66.34-10.63,2.31-13.1,2.67-2.47.37-6.23,16.42-11.45,14.77-5.22-1.64-16.85-8.94-16.85-9.94,0-.87.91-11.54,1.15-14.29.02-.19.03-.37.05-.54,0-.05.01-.11.01-.11h0c.17-2.16.02-3.11-.98-.95-.86,1.86-4.61,13.77-8.79,26.73-.44,1.13-8.34,25.03-9.37,27.94-1.24,3.38-2.28,5.97-2.99,7.3-1.09,1.48-2.57,2.41-4.62,1.79-5.13-1.55-11.62-8.64-11.68-10.39-.12-9.92.48-63.23-1.92-58.79-2.47,4.56-21.65,36.17-21.65,36.17-.32.06-.56.04-.84.07-1.36-.15-3.46-.59-4.04-1.89-.03-.08-.07-.15-.1-.23-.03-.08-.06-.17-.11-.32-.26-.87-.37-1.82-.6-2.59-.86-2.9-2.23-7.05-3.67-11.27-2.21-7.2-4.48-14.57-4.86-15.38-.73-1.59-1.8-.92-2.76,0-4.28,3.63-13.38,19.66-21.59,20.54Z"/>
  <path class="cls-1" d="M123.86,356.41h-14.31v-7.07h-.22c-3.55,5.46-8.28,8.2-14.21,8.2-10.79,0-16.17-6.51-16.17-19.52v-28h14.31v26.74c0,6.54,2.61,9.82,7.81,9.82,2.57,0,4.62-.9,6.17-2.69,1.55-1.8,2.31-4.24,2.31-7.31v-26.55h14.31v46.4ZM73.84,356.41h-13.58v-6.67h-.19c-3.11,5.2-7.73,7.8-13.84,7.8-4.53,0-8.08-1.27-10.67-3.82-2.59-2.55-3.87-5.97-3.87-10.22,0-9,5.35-14.2,16.03-15.59l12.63-1.67c0-5.07-2.76-7.61-8.28-7.61s-10.8,1.64-15.8,4.94v-10.78c2-1.03,4.73-1.93,8.2-2.72,3.46-.79,6.62-1.17,9.47-1.17,13.25,0,19.89,6.6,19.89,19.8v27.73ZM60.36,337.56v-3.13l-8.45,1.08c-4.66.61-6.99,2.71-6.99,6.31,0,1.63.56,2.97,1.69,4,1.15,1.03,2.68,1.56,4.62,1.56,2.7,0,4.88-.93,6.59-2.78,1.69-1.86,2.54-4.2,2.54-7.05ZM175.93,356.41h-14.35v-6.39h-.17c-3.27,5.01-8.08,7.52-14.4,7.52-5.81,0-10.49-2.04-14.03-6.14-3.55-4.08-5.32-9.81-5.32-17.15s1.95-13.81,5.86-18.44c3.91-4.62,9.02-6.93,15.35-6.93,6,0,10.17,2.14,12.54,6.43h.17v-27.59h14.35v68.68ZM161.86,333.85v-3.5c0-3.01-.89-5.52-2.64-7.51-1.75-2-4.04-2.98-6.85-2.98-3.18,0-5.67,1.23-7.46,3.73-1.78,2.5-2.68,5.92-2.68,10.27,0,4.08.87,7.22,2.59,9.42,1.73,2.21,4.12,3.31,7.17,3.31s5.29-1.16,7.12-3.48c1.83-2.33,2.74-5.41,2.74-9.25ZM189.45,302.67c-2.42,0-4.4-.71-5.95-2.15-1.55-1.44-2.31-3.19-2.31-5.27s.76-3.9,2.31-5.26c1.55-1.36,3.53-2.04,5.95-2.04s4.45.68,5.97,2.04c1.54,1.36,2.29,3.1,2.29,5.26s-.76,3.95-2.29,5.35c-1.52,1.38-3.52,2.08-5.97,2.08ZM196.4,340.69c0,1.96.47,3.46,1.41,4.47.94,1,2.2,1.52,3.77,1.52.79,0,1.58-.08,2.36-.23.79-.14,1.58-.3,2.37-.45v10.07c-1.74.44-3.55.82-5.47,1.1-1.92.29-3.94.43-6.01.43-1.91,0-3.64-.31-5.21-.94-1.55-.63-2.88-1.55-4-2.75-1.09-1.19-1.95-2.63-2.55-4.32-.6-1.7-.91-3.6-.91-5.72v-33.84h14.26v30.67ZM228.98,357.54c-7.75,0-13.84-2.17-18.28-6.49-4.44-4.33-6.65-10.23-6.65-17.65s2.29-13.69,6.89-18.02c4.61-4.33,10.82-6.5,18.66-6.5s13.78,2.17,18.17,6.5c4.39,4.33,6.58,10.07,6.58,17.2,0,7.7-2.26,13.79-6.79,18.26-4.53,4.47-10.72,6.7-18.6,6.7ZM229.35,319.85c6.93,0,10.4,4.33,10.4,13.01,0,9.14-3.44,13.72-10.31,13.72-7.21,0-10.82-4.46-10.82-13.36,0-4.25.95-7.55,2.82-9.88,1.87-2.32,4.51-3.48,7.91-3.48ZM332,356.41h-14.31v-26.46c0-6.72-2.48-10.1-7.44-10.1-2.36,0-4.28,1-5.77,3.03-1.49,2.02-2.23,4.55-2.23,7.56v25.97h-14.34v-26.74c0-6.54-2.45-9.82-7.32-9.82-2.45,0-4.42.96-5.87,2.89-1.47,1.93-2.22,4.57-2.22,7.89v25.78h-14.34v-46.4h14.34v7.25h.19c1.49-2.47,3.56-4.5,6.25-6.05,2.68-1.56,5.61-2.33,8.79-2.33,6.57,0,11.06,2.88,13.49,8.65,3.55-5.77,8.74-8.65,15.62-8.65,10.11,0,15.16,6.22,15.16,18.67v28.86ZM376.53,356.41h-13.58v-6.67h-.19c-3.12,5.2-7.74,7.8-13.84,7.8-4.53,0-8.08-1.27-10.66-3.82-2.59-2.55-3.88-5.97-3.88-10.22,0-9,5.35-14.2,16.03-15.59l12.63-1.67c0-5.07-2.76-7.61-8.28-7.61s-10.81,1.64-15.8,4.94v-10.78c2-1.03,4.73-1.93,8.2-2.72,3.45-.79,6.62-1.17,9.47-1.17,13.26,0,19.89,6.6,19.89,19.8v27.73ZM363.05,337.56c0,2.85-.85,5.19-2.54,7.05-1.7,1.86-3.89,2.78-6.59,2.78-1.94,0-3.47-.53-4.62-1.56-1.13-1.04-1.69-2.38-1.69-4,0-3.6,2.32-5.7,6.99-6.31l8.45-1.08v3.13ZM417.61,354.74c-3.23,1.87-7.92,2.8-14.02,2.8-7.15,0-12.93-2.15-17.35-6.48-4.41-4.32-6.63-9.88-6.63-16.72,0-7.89,2.37-14.09,7.1-18.63,4.74-4.55,11.08-6.82,19.02-6.82,5.47,0,9.44.73,11.89,2.17v12.15c-2.99-2.24-6.34-3.35-10.02-3.35-4.13,0-7.38,1.19-9.8,3.6-2.4,2.4-3.61,5.7-3.61,9.94s1.16,7.33,3.46,9.67c2.29,2.35,5.47,3.51,9.48,3.51,3.58,0,7.07-1.12,10.49-3.36v11.52ZM468.3,356.43h-17.21l-14.84-22.97h-.19v22.97h-14.33v-68.54h14.33v43.63h.19l13.85-21.39h17.01l-16.65,21.74,17.85,24.55Z"/>
</svg>