<?xml version="1.0" encoding="UTF-8"?>
<svg id="Layer_1" data-name="Layer 1" xmlns="http://www.w3.org/2000/svg" viewBox="0 0 500 500">
  <path d="M184.5,113.78c-1.67,1.6-19.15,40.96-19.15,43.39,0,.84.91,2.28,1.98,3.12,1.98,1.52,2.51,1.52,39.9,1.06,20.82-.23,37.92-.23,37.92,0s-9.04,21.05-20.14,46.2c-11.1,25.15-20.14,46.05-20.14,46.43,0,.3,11.86.53,26.37.46l26.45-.23,20.44-46.58,20.52-46.51h40.05c22.04,0,40.66-.23,41.34-.46.68-.3,1.98-2.05,2.96-4.03,2.66-5.24,17.17-38.61,17.17-39.44,0-.38-.68-1.6-1.6-2.74l-1.52-1.98h-105.56c-99.32,0-105.56.08-107,1.29Z"/>
  <path d="M159.5,180.12c-.91.38-2.36,1.98-3.12,3.57-2.66,5.24-56.92,123.72-57.45,125.39-.38,1.06,0,2.2,1.22,3.5l1.75,1.98,104.87.46,104.87.53,1.44-1.52c2.05-2.36,18.69-40.35,18.69-42.78,0-4.48,3.72-4.26-81.54-4.71-43.01-.23-78.35-.61-78.58-.76-.15-.23,8.21-18.16,18.69-39.82,10.49-21.73,19.07-40.2,19.07-41.11s-.68-2.36-1.52-3.19c-1.44-1.44-2.51-1.52-21.96-1.52-11.25,0-21.35-.15-22.57-.38-1.22-.15-2.96,0-3.88.38Z"/>
  <path d="M172.72,328.46c-1.06,1.06-5.7,10.56-11.1,22.95-8.44,19.3-9.2,21.35-8.44,23.33.53,1.14,1.37,2.28,1.98,2.51.53.23,11.17.61,23.63.91l22.65.53,1.6-1.82c2.51-2.96,19.45-42.4,19-44.3-1.29-5.17-4.03-5.7-30.25-5.7-16.87-.08-17.25,0-19.07,1.6Z"/>
</svg>