<?xml version="1.0" encoding="UTF-8"?>
<svg id="Layer_1" data-name="Layer 1" xmlns="http://www.w3.org/2000/svg" viewBox="0 0 500 500">
  <g id="download">
    <path id="Path_1" data-name="Path 1" d="M69.41,256.84v4.13c-.03,9.33-7.58,16.88-16.91,16.91H17.75l3.76-12.4h30.71c2.59,0,4.69-2.11,4.7-4.7v-3.66c.01-2.57-2.06-4.66-4.63-4.67-.02,0-.04,0-.06,0h-17.56c-9.33-.03-16.88-7.58-16.91-16.91v-4.13c.02-9.33,7.58-16.89,16.91-16.91h30.03l-3.76,12.49h-26.1c-2.59,0-4.69,2.11-4.7,4.7v3.57c0,2.59,2.11,4.69,4.7,4.7h17.66c9.32.02,16.87,7.57,16.91,16.89ZM125.87,214.5l-22.45,33.63v29.78h-12.5v-33.63l2.91-4.32h-8.37l-17-25.46h14.93l13.71,20.48,13.79-20.48h14.97ZM176.22,214.5h12.38v63.41h-12.38v-39.45l-11.82,19.44h-9.6l-11.82-19.44v39.45h-12.42v-63.41h12.4l16.63,27.34,16.63-27.34ZM249.2,241.93h0ZM249.2,231.13h0ZM249.2,242.21c-.2,9.21-7.7,16.58-16.91,16.6h-17.47l3.76-12.49h13.43c2.57.02,4.67-2.04,4.7-4.61,0-.03,0-.06,0-.09v-9.94c.02-2.57-2.04-4.67-4.61-4.7-.03,0-.06,0-.09,0h-22.07v50.91h-12.4v-63.4h34.76c9.22.03,16.73,7.41,16.91,16.63v11.08ZM304.62,214.5v63.41h-12.49v-25.46h-22.07v25.46h-12.4v-63.41h12.4v31.75l6.29-6.29h15.78v-25.46h12.49ZM346.43,214.5c9.33.03,16.88,7.58,16.91,16.91v29.59c-.03,9.33-7.58,16.88-16.91,16.91h-15.97c-9.33-.03-16.88-7.58-16.91-16.91v-29.59c.03-9.33,7.58-16.88,16.91-16.91h15.97ZM350.86,260.81v-29.12c.02-2.57-2.04-4.67-4.61-4.7-.03,0-.06,0-.09,0h-15.5c-2.59,0-4.69,2.11-4.7,4.7v29.12c.04,2.58,2.12,4.66,4.7,4.7h15.49c2.58-.02,4.67-2.11,4.68-4.69h.02ZM421.12,277.91h-12.49l-23.95-39.45v39.45h-12.42v-63.41h12.4l23.95,39.45v-39.45h12.49l.02,63.41ZM482.72,214.5l-22.45,33.63v29.78h-12.49v-33.63l2.91-4.32h-8.37l-16.99-25.46h14.93l13.71,20.48,13.79-20.48h14.96Z"/>
    <path id="Path_2" data-name="Path 2" d="M69.41,256.84v4.13c-.03,9.33-7.58,16.88-16.91,16.91H17.75l3.76-12.4h30.71c2.59,0,4.69-2.11,4.7-4.7v-3.66c.01-2.57-2.06-4.66-4.63-4.67-.02,0-.04,0-.06,0h-17.56c-9.33-.03-16.88-7.58-16.91-16.91v-4.13c.02-9.33,7.58-16.89,16.91-16.91h30.03l-3.76,12.49h-26.1c-2.59,0-4.69,2.11-4.7,4.7v3.57c0,2.59,2.11,4.69,4.7,4.7h17.66c9.32.02,16.87,7.57,16.91,16.89ZM125.87,214.5l-22.45,33.63v29.78h-12.5v-33.63l2.91-4.32h-8.37l-17-25.46h14.93l13.71,20.48,13.79-20.48h14.97ZM176.22,214.5h12.38v63.41h-12.38v-39.45l-11.82,19.44h-9.6l-11.82-19.44v39.45h-12.42v-63.41h12.4l16.63,27.34,16.63-27.34ZM249.2,241.93h0ZM249.2,231.13h0ZM249.2,242.21c-.2,9.21-7.7,16.58-16.91,16.6h-17.47l3.76-12.49h13.43c2.57.02,4.67-2.04,4.7-4.61,0-.03,0-.06,0-.09v-9.94c.02-2.57-2.04-4.67-4.61-4.7-.03,0-.06,0-.09,0h-22.07v50.91h-12.4v-63.4h34.76c9.22.03,16.73,7.41,16.91,16.63v11.08ZM304.62,214.5v63.41h-12.49v-25.46h-22.07v25.46h-12.4v-63.41h12.4v31.75l6.29-6.29h15.78v-25.46h12.49ZM346.43,214.5c9.33.03,16.88,7.58,16.91,16.91v29.59c-.03,9.33-7.58,16.88-16.91,16.91h-15.97c-9.33-.03-16.88-7.58-16.91-16.91v-29.59c.03-9.33,7.58-16.88,16.91-16.91h15.97ZM350.86,260.81v-29.12c.02-2.57-2.04-4.67-4.61-4.7-.03,0-.06,0-.09,0h-15.5c-2.59,0-4.69,2.11-4.7,4.7v29.12c.04,2.58,2.12,4.66,4.7,4.7h15.49c2.58-.02,4.67-2.11,4.68-4.69h.02ZM421.12,277.91h-12.49l-23.95-39.45v39.45h-12.42v-63.41h12.4l23.95,39.45v-39.45h12.49l.02,63.41ZM482.72,214.5l-22.45,33.63v29.78h-12.49v-33.63l2.91-4.32h-8.37l-16.99-25.46h14.93l13.71,20.48,13.79-20.48h14.96Z"/>
  </g>
</svg>