<?xml version="1.0" encoding="UTF-8"?>
<svg id="Layer_2" data-name="Layer 2" xmlns="http://www.w3.org/2000/svg" viewBox="0 0 730 250.98">
  <defs>
    <style>
      .cls-1 {
        fill-rule: evenodd;
      }
    </style>
  </defs>
  <g id="Layer_1-2" data-name="Layer 1">
    <g>
      <path class="cls-1" d="M96.98,36.57c10.61,15.06,17.62,22.47,29.6,32.95,7.19,6.26,15.49,11.54,21.01,18.41,3.91,4.86,6.13,10.78,6.47,18.02.48,6.31-.56,13-3.63,18.57l-14.77-1.96c4.32-4.95,5.79-11.68,4.67-17.42l-37.06,5.24c-1.02,2.46-3.1,4.15-5.51,4.15-3.41,0-6.18-3.39-6.18-7.57s2.77-7.58,6.18-7.58c2.03,0,3.82,1.2,4.95,3.04l34.07-4.75c-8.07-9.05-28.27-11.8-41.43-13.29-9.71-1.1-18.79-1.59-23.5-1.72,9.47-11.65,18.16-24.04,25.14-46.09h0Z"/>
      <path class="cls-1" d="M91.49,116.06c8.91-.19,17.84-.02,26.71.81,2.96.31,5.93.66,8.84,1.3,1.4.35,2.91.62,4.08,1.53.35.22.4.6.27.93l.06-.06c-.16,2.45.1,4.92-.13,7.36-.58.79-1.59,1.03-2.46,1.34-3.1.89-6.31,1.27-9.5,1.63-7.59.77-15.22,1.02-22.85.96-4.68.03-9.35-.14-14.02-.42-4.42-.3-8.84-.68-13.2-1.49-1.46-.31-2.95-.61-4.31-1.25-.46-.24-1.08-.56-1.02-1.18-.06-2.31.06-4.62-.06-6.93l.06.07c-.13-.3-.08-.67.21-.88.89-.79,2.1-1.06,3.21-1.38,3.88-.95,7.86-1.34,11.82-1.7,4.09-.34,8.19-.53,12.29-.63h0Z"/>
      <polygon class="cls-1" points="45.82 131.62 97.82 139.01 149.56 131.56 149.56 172.06 97.81 182.45 45.81 172.29 45.82 131.62 45.82 131.62"/>
      <polygon class="cls-1" points="28.89 176.12 97.91 188.61 166.62 176.14 195.55 229.54 97.95 250.98 0 229.54 28.89 176.12 28.89 176.12"/>
      <path class="cls-1" d="M83.61,0c13.33,0,13.92,22.28,2.51,48.51-11.41,26.23-31.51,46.49-44.2,46.49s-14.42-21.27-3.01-47.5C50.31,21.27,70.29,0,83.61,0h0Z"/>
      <polygon class="cls-1" points="591.51 86.34 602.04 86.34 602.04 148.42 591.51 148.42 591.51 86.34 591.51 86.34"/>
      <path class="cls-1" d="M527.04,86.34h26.64c18.57,0,24.9,16.54,24.9,29.91v2.26c0,13.37-7.47,29.91-24.9,29.91h-26.64v-62.08h0ZM537.56,89.84h16.86c9.05,0,12.92,11.43,12.92,25.37v4.33c0,13.94-3.51,25.37-12.17,25.37h-17.62v-55.07h0Z"/>
      <path class="cls-1" d="M400.03,167.31h26.71c18.62,0,24.97,16.54,24.97,29.91v2.26c0,13.37-7.49,29.91-24.97,29.91h-26.71v-62.08h0ZM410.59,170.81h16.91c9.07,0,12.96,11.43,12.96,25.37v4.33c0,13.94-3.52,25.37-12.2,25.37h-17.67v-55.07h0Z"/>
      <path class="cls-1" d="M238.32,89.84v26.81h18.81c6.42,0,8.73-5.43,8.73-12.07v-2.39c0-6.48-2.58-12.35-8.73-12.35h-18.81ZM238.32,120.16v28.26h-10.52v-62.08h29.87c12.01,0,19.21,5.75,19.21,15.61v2.41c0,8.31-6.29,13-14.36,14.45,2.82.55,12.74,3.33,12.74,11.82v5.53c0,4.35.86,9.8,1.72,12.26h-10.47c-1.59-3.85-1.59-8.13-1.59-12.89v-3.55c0-5.88-3.05-11.82-10.59-11.82h-16.01Z"/>
      <path class="cls-1" d="M475.33,89.84v26.81h18.64c6.42,0,8.82-5.51,8.82-12.16v-2.39c0-6.48-2.5-12.27-8.65-12.27h-18.81ZM475.33,120.16v28.26h-10.52v-62.08h29.87c12.01,0,19.21,5.75,19.21,15.61v2.41c0,8.31-6.2,12.84-14.27,14.28,2.82.55,12.66,3.42,12.66,11.99v5.53c0,4.35.86,9.8,1.72,12.26h-10.64c-1.26-4.26-1.68-7.39-1.59-12.89v-3.55c0-5.88-2.56-11.82-10.09-11.82h-16.34Z"/>
      <polygon class="cls-1" points="290.29 86.34 334.38 86.34 334.38 89.84 300.82 89.84 300.82 114.75 332.14 114.75 332.14 118.25 300.82 118.25 300.82 144.91 334.63 144.91 334.63 148.42 290.29 148.42 290.29 86.34 290.29 86.34"/>
      <polygon class="cls-1" points="462.67 167.31 506.76 167.31 506.76 170.81 473.2 170.81 473.2 195.72 504.52 195.72 504.52 199.22 473.2 199.22 473.2 225.88 507.01 225.88 507.01 229.39 462.67 229.39 462.67 167.31 462.67 167.31"/>
      <polygon class="cls-1" points="621.62 204.11 621.62 229.39 611.1 229.39 611.1 204.07 588.72 167.31 600.91 167.31 620.36 199.47 637.83 167.31 641.23 167.31 621.62 204.11 621.62 204.11"/>
      <polygon class="cls-1" points="570.58 167.31 579.76 167.31 579.76 229.39 569.24 229.39 569.24 182.01 549.16 229.39 541.81 229.39 521.35 184.81 521.35 229.39 517.87 229.39 517.87 167.31 525.5 167.31 549.15 219 570.58 167.31 570.58 167.31"/>
      <path class="cls-1" d="M361.91,167.31h8.48l21.79,62.08h-11.02l-6.63-18.65h-24.4l-6.89,18.65h-3.98l22.66-62.08h0ZM373.28,207.24l-10.72-30.14-11.14,30.14h21.86Z"/>
      <path class="cls-1" d="M249.68,167.31h8.48l21.78,62.08h-11.02l-6.63-18.65h-24.4l-6.89,18.65h-3.98l22.66-62.08h0ZM261.04,207.24l-10.72-30.14-11.14,30.14h21.86Z"/>
      <path class="cls-1" d="M703.49,117.89h25.19l1.31,1.38v29.15h-2.97l-5.79-7.92c-3.36,5.3-8.94,8.61-15.54,8.61-7.1.03-13.7-.87-19.07-6.4-5.76-5.57-8.09-13.48-8.17-24.06,0-9.27,1.89-17.86,6.57-23.8,5.19-6.58,12.77-9.03,20.84-9.02,3.93,0,9.21.32,12.84,1.89,6.94,2.95,10.65,8.85,10.65,15.41v3.32s-9.79,0-9.79,0l.02-4.04c-.86-9.18-4.03-13.01-13.71-13.09-15.21-.12-15.94,18.19-16.22,28.14.11,11.63.64,28.63,15.8,28.12,8.51-.29,13.28-5.91,13.97-14.9l.02-9.25h-15.93v-3.55h0Z"/>
      <polygon class="cls-1" points="616.3 86.34 623.15 86.34 663.37 133.51 663.37 86.34 666.86 86.34 666.86 148.42 660.15 148.42 619.78 102.08 619.78 148.42 616.3 148.42 616.3 86.34 616.3 86.34"/>
      <path class="cls-1" d="M399.14,117.97c0,18.67,7.59,31.33,27.44,31.3,19.29-.03,27.35-13.61,27.35-31.64,0-18.95-6.87-31.71-27.3-31.69-19.47.02-27.5,14.06-27.5,32.03h0ZM410.25,117.64c.59-11.83.71-28.17,16.39-28.19,16.52-.02,15.64,15.54,16.27,28.19-1.09,12.14-.68,28.11-16.27,28.14-16.3.05-16.06-14.45-16.39-28.14h0Z"/>
      <path class="cls-1" d="M340.11,118.65c0,9.81,2.34,18.49,8.15,24.06,5.23,5.02,12.02,6.56,19.05,6.57,10.98.02,23.71-6.22,23.71-18.62l-.03-3.58h-9.76l.02,4.04c-.51,8.52-5.22,14.55-14.02,14.65-15.54.18-15.82-16.63-15.93-28.13.32-11.26,1.03-27.9,15.93-28.14,9.52-.15,13.1,5.58,13.64,14.6v4.04s9.87,0,9.87,0l-.02-3.32c0-6.4-3.4-13.39-11.24-16.76-3.81-1.64-8.13-2.1-12.25-2.06-7.96.08-15.4,2.61-20.5,9.02-4.72,5.94-6.62,14.36-6.62,23.63h0Z"/>
      <path class="cls-1" d="M283.59,199.41c0,9.81,2.34,18.57,8.15,24.14,5.33,5.11,12.23,6.52,19.39,6.49,11.88,0,22.95-6.47,23.37-18.62l-.03-3.58h-9.76l.02,4.04c-.51,8.42-5.01,14.34-13.69,14.64-15.78.53-16.15-16.49-16.26-28.12.33-11.56,1.11-28.26,16.43-28.14,9.25.07,12.61,5.85,13.14,14.61v4.04s9.87,0,9.87,0l-.02-3.32c0-6.4-3.4-13.39-11.24-16.76-3.66-1.58-7.78-2.06-11.75-2.06-8.14,0-15.77,2.44-21,9.02-4.72,5.94-6.62,14.36-6.62,23.63h0Z"/>
    </g>
  </g>
</svg>