<svg width="14" height="14" fill="none" xmlns="http://www.w3.org/2000/svg">
  <path fill-rule="evenodd" clip-rule="evenodd" d="M6.65.516a6.5 6.5 0 0 0 0 12.968.501.501 0 0 0 .2.01 6.433 6.433 0 0 0 .52 0c.067.01.135.007.2-.01A6.502 6.502 0 0 0 13.61 7 6.5 6.5 0 0 0 7.568.516a.501.501 0 0 0-.199-.01 6.505 6.505 0 0 0-.521 0 .501.501 0 0 0-.199.01ZM5.836 1.65A5.5 5.5 0 0 0 2.21 4.5h2.615c.213-.988.553-1.946 1.011-2.85ZM4.653 5.5H1.818a5.498 5.498 0 0 0 0 3h2.835a11.833 11.833 0 0 1 0-3Zm1.009 3a10.834 10.834 0 0 1 0-3h2.895a10.832 10.832 0 0 1 0 3H5.662Zm-.837 1H2.21a5.499 5.499 0 0 0 3.626 2.85A11.835 11.835 0 0 1 4.825 9.5Zm2.232 3a10.834 10.834 0 0 1-1.207-3h2.519a10.834 10.834 0 0 1-1.207 3 9.066 9.066 0 0 1-.105 0Zm1.326-.15a5.492 5.492 0 0 0 3.625-2.85H9.394a11.834 11.834 0 0 1-1.011 2.85ZM9.566 8.5H12.4a5.502 5.502 0 0 0 0-3H9.566a11.833 11.833 0 0 1 0 3Zm-.172-4h2.614a5.5 5.5 0 0 0-3.625-2.85c.458.904.798 1.862 1.011 2.85Zm-2.336-3a5.602 5.602 0 0 1 .103 0c.553.938.959 1.95 1.208 3H5.85c.25-1.05.655-2.062 1.208-3Z" fill="#000"/>
</svg>
