<svg width="21" height="21" viewBox="0 0 21 21" fill="none" xmlns="http://www.w3.org/2000/svg">
<path d="M10.7227 2.67188C11.5777 2.67188 12.4547 2.69388 13.3047 2.72988L14.3087 2.77787L15.2697 2.83488L16.1697 2.89587L16.9917 2.95988C17.8838 3.02777 18.7235 3.40831 19.3626 4.03448C20.0018 4.66064 20.3995 5.49227 20.4857 6.38287L20.5257 6.80787L20.6007 7.71787C20.6707 8.66087 20.7227 9.68888 20.7227 10.6719C20.7227 11.6549 20.6707 12.6829 20.6007 13.6259L20.5257 14.5359L20.4857 14.9609C20.3994 15.8516 20.0016 16.6834 19.3622 17.3096C18.7229 17.9358 17.883 18.3162 16.9907 18.3839L16.1707 18.4469L15.2707 18.5089L14.3087 18.5659L13.3047 18.6139C12.4445 18.6511 11.5836 18.6705 10.7227 18.6719C9.86168 18.6705 9.00083 18.6511 8.14066 18.6139L7.13666 18.5659L6.17566 18.5089L5.27566 18.4469L4.45366 18.3839C3.56147 18.316 2.72186 17.9354 2.0827 17.3093C1.44354 16.6831 1.04585 15.8515 0.959656 14.9609L0.919656 14.5359L0.844656 13.6259C0.768489 12.643 0.727796 11.6577 0.722656 10.6719C0.722656 9.68888 0.774656 8.66087 0.844656 7.71787L0.919656 6.80787L0.959656 6.38287C1.04581 5.49243 1.44337 4.66093 2.08232 4.03478C2.72127 3.40863 3.56065 3.02799 4.45266 2.95988L5.27366 2.89587L6.17366 2.83488L7.13566 2.77787L8.13966 2.72988C9.00016 2.6926 9.86135 2.67326 10.7227 2.67188ZM10.7227 4.67188C9.89766 4.67188 9.04866 4.69388 8.22266 4.72788L7.24466 4.77488L6.30566 4.82987L5.42366 4.88987L4.61566 4.95288C4.19085 4.98261 3.79035 5.162 3.48532 5.45916C3.18029 5.75631 2.99049 6.15199 2.94966 6.57587C2.83266 7.78487 2.72266 9.28988 2.72266 10.6719C2.72266 12.0539 2.83266 13.5589 2.94966 14.7679C3.03466 15.6399 3.72666 16.3179 4.61566 16.3909L5.42366 16.4529L6.30566 16.5129L7.24466 16.5689L8.22266 16.6159C9.04866 16.6499 9.89766 16.6719 10.7227 16.6719C11.5477 16.6719 12.3967 16.6499 13.2227 16.6159L14.2007 16.5689L15.1397 16.5139L16.0217 16.4539L16.8297 16.3909C17.2545 16.3611 17.655 16.1817 17.96 15.8846C18.265 15.5874 18.4548 15.1918 18.4957 14.7679C18.6127 13.5589 18.7227 12.0539 18.7227 10.6719C18.7227 9.28988 18.6127 7.78487 18.4957 6.57587C18.4548 6.15199 18.265 5.75631 17.96 5.45916C17.655 5.162 17.2545 4.98261 16.8297 4.95288L16.0217 4.89087L15.1397 4.83087L14.2007 4.77488L13.2227 4.72788C12.3898 4.69213 11.5563 4.67346 10.7227 4.67188ZM8.72266 8.24687C8.72259 8.14914 8.7464 8.05287 8.79202 7.96643C8.83764 7.87999 8.90368 7.80601 8.98441 7.75091C9.06514 7.69581 9.1581 7.66127 9.25522 7.65028C9.35233 7.6393 9.45066 7.6522 9.54166 7.68787L9.62266 7.72787L13.8227 10.1519C13.9063 10.2001 13.977 10.2679 14.0289 10.3493C14.0808 10.4308 14.1122 10.5235 14.1206 10.6197C14.1289 10.7159 14.1139 10.8127 14.0768 10.9019C14.0398 10.991 13.9817 11.0699 13.9077 11.1319L13.8227 11.1919L9.62266 13.6169C9.53802 13.6659 9.44268 13.6935 9.34495 13.6972C9.24722 13.701 9.15005 13.6807 9.06191 13.6384C8.97377 13.596 8.89734 13.5327 8.83925 13.454C8.78117 13.3753 8.7432 13.2836 8.72866 13.1869L8.72266 13.0969V8.24687Z" fill="black" style="fill:black;fill-opacity:1;"/>
</svg>
