<svg width="21" height="21" viewBox="0 0 21 21" fill="none" xmlns="http://www.w3.org/2000/svg">
<path d="M10.7237 7.67188C9.92801 7.67188 9.16495 7.98795 8.60234 8.55055C8.03973 9.11316 7.72366 9.87623 7.72366 10.6719C7.72366 11.4675 8.03973 12.2306 8.60234 12.7932C9.16495 13.3558 9.92801 13.6719 10.7237 13.6719C11.5193 13.6719 12.2824 13.3558 12.845 12.7932C13.4076 12.2306 13.7237 11.4675 13.7237 10.6719C13.7237 9.87623 13.4076 9.11316 12.845 8.55055C12.2824 7.98795 11.5193 7.67188 10.7237 7.67188ZM10.7237 5.67188C12.0497 5.67188 13.3215 6.19866 14.2592 7.13634C15.1969 8.07402 15.7237 9.34579 15.7237 10.6719C15.7237 11.998 15.1969 13.2697 14.2592 14.2074C13.3215 15.1451 12.0497 15.6719 10.7237 15.6719C9.39757 15.6719 8.1258 15.1451 7.18812 14.2074C6.25044 13.2697 5.72366 11.998 5.72366 10.6719C5.72366 9.34579 6.25044 8.07402 7.18812 7.13634C8.1258 6.19866 9.39757 5.67188 10.7237 5.67188ZM17.2237 5.42188C17.2237 5.7534 17.092 6.07134 16.8575 6.30576C16.6231 6.54018 16.3052 6.67188 15.9737 6.67188C15.6421 6.67188 15.3242 6.54018 15.0898 6.30576C14.8554 6.07134 14.7237 5.7534 14.7237 5.42188C14.7237 5.09035 14.8554 4.77241 15.0898 4.53799C15.3242 4.30357 15.6421 4.17188 15.9737 4.17188C16.3052 4.17188 16.6231 4.30357 16.8575 4.53799C17.092 4.77241 17.2237 5.09035 17.2237 5.42188ZM10.7237 2.67188C8.24966 2.67188 7.84566 2.67888 6.69466 2.72988C5.91066 2.76688 5.38466 2.87187 4.89666 3.06187C4.48849 3.21225 4.11938 3.45251 3.81666 3.76487C3.50393 4.06749 3.26332 4.43661 3.11266 4.84487C2.92266 5.33487 2.81766 5.85988 2.78166 6.64288C2.72966 7.74688 2.72266 8.13287 2.72266 10.6719C2.72266 13.1469 2.72966 13.5499 2.78066 14.7009C2.81766 15.4839 2.92266 16.0109 3.11166 16.4979C3.28166 16.9329 3.48166 17.2459 3.81366 17.5779C4.15066 17.9139 4.46366 18.1149 4.89366 18.2809C5.38766 18.4719 5.91366 18.5779 6.69366 18.6139C7.79766 18.6659 8.18366 18.6719 10.7227 18.6719C13.1977 18.6719 13.6007 18.6649 14.7517 18.6139C15.5337 18.5769 16.0597 18.4719 16.5487 18.2829C16.9568 18.1325 17.3259 17.8922 17.6287 17.5799C17.9657 17.2439 18.1667 16.9309 18.3327 16.4999C18.5227 16.0079 18.6287 15.4819 18.6647 14.6999C18.7167 13.5969 18.7227 13.2099 18.7227 10.6719C18.7227 8.19788 18.7157 7.79388 18.6647 6.64288C18.6277 5.86088 18.5217 5.33287 18.3327 4.84487C18.1823 4.43671 17.942 4.0676 17.6297 3.76487C17.327 3.45215 16.9579 3.21154 16.5497 3.06087C16.0597 2.87087 15.5337 2.76588 14.7517 2.72988C13.6487 2.67788 13.2627 2.67188 10.7227 2.67188M10.7227 0.671875C13.4397 0.671875 13.7787 0.681875 14.8457 0.731875C15.9097 0.781875 16.6357 0.948875 17.2727 1.19688C17.9327 1.45088 18.4887 1.79487 19.0447 2.34987C19.5534 2.84961 19.9468 3.45435 20.1977 4.12187C20.4447 4.75887 20.6127 5.48487 20.6627 6.54987C20.7097 7.61587 20.7227 7.95487 20.7227 10.6719C20.7227 13.3889 20.7127 13.7279 20.6627 14.7939C20.6127 15.8599 20.4447 16.5839 20.1977 17.2219C19.9468 17.8894 19.5534 18.4941 19.0447 18.9939C18.5449 19.5026 17.9402 19.8961 17.2727 20.1469C16.6357 20.3939 15.9097 20.5619 14.8457 20.6119C13.7787 20.6589 13.4397 20.6719 10.7227 20.6719C8.00566 20.6719 7.66666 20.6619 6.59966 20.6119C5.53566 20.5619 4.81066 20.3939 4.17266 20.1469C3.50513 19.8961 2.90039 19.5026 2.40066 18.9939C1.89196 18.4941 1.49847 17.8894 1.24766 17.2219C0.999656 16.5849 0.832656 15.8589 0.782656 14.7939C0.734656 13.7279 0.722656 13.3889 0.722656 10.6719C0.722656 7.95487 0.732656 7.61587 0.782656 6.54987C0.832656 5.48387 0.999656 4.75987 1.24766 4.12187C1.49847 3.45435 1.89196 2.84961 2.40066 2.34987C2.90039 1.84118 3.50513 1.44769 4.17266 1.19688C4.80966 0.948875 5.53466 0.781875 6.59966 0.731875C7.66766 0.684875 8.00666 0.671875 10.7237 0.671875" fill="black" style="fill:black;fill-opacity:1;"/>
</svg>
