<svg xmlns="http://www.w3.org/2000/svg" width="202" height="34" viewBox="0 0 202 34">
  <path d="M1 33v-3.8l10.9-10.8c1.2-1.2 2.1-2.1 2.7-2.9.6-.7 1.1-1.5 1.5-2.3.4-.8.6-1.6.6-2.4 0-1.3-.5-2.5-1.5-3.3-1-.9-2.2-1.3-3.6-1.3s-3.2.6-4.2 1.7-1.5 2.7-1.4 4.6H.7c-.1-3.4.9-6.1 2.9-8.3C5.7 2.1 8.3 1 11.6 1s5.5.9 7.4 2.7c2 1.8 2.9 4.1 2.9 6.9s-.5 3.6-1.6 5.4c-1.1 1.7-2.7 3.6-4.8 5.6l-6.2 6.2h12.8v5.1H1Zm46.6-10.9v5h-3.7V33h-5.2v-5.9H22v-3.7L37 1.5h6.9v20.6h3.7Zm-19.2 0h10.3V7.3L28.4 22.1ZM46.7 33 60.5 1.5h5.3L52.1 33h-5.3ZM67.2 1.5h21.2v3.6L75.2 33h-5.8L82 6.6H67.2V1.5ZM106.6 33l-2.4-6.3H91L88.5 33H83L95.5 1.5h4.4L112.3 33h-5.7ZM92.9 21.6h9.3L97.6 9.5l-4.7 12.1Zm30.8-11.1c.5 0 1.2 0 2.1.3v4.6c-.8-.2-1.6-.3-2.2-.3-1.6 0-3 .5-4.1 1.6-1.1 1.1-1.6 2.6-1.6 4.5v11.7H113V11h4.9v2.9c1.4-2.3 3.3-3.4 5.9-3.4Zm18.9 5.3h-5.7v8.8c0 1.3.4 2.3 1.1 3s1.7 1 3 1 1.2 0 1.6-.2V33c-.8.2-1.7.3-2.7.3-2.5 0-4.4-.7-5.9-2.2-1.5-1.5-2.2-3.6-2.2-6.3v-8.9h-4.1v-4.8h4.1V5.2h5v5.9h5.7v4.8Zm1.9-14.1c.6-.6 1.4-.9 2.2-.9s1.6.3 2.3.9c.6.6.9 1.4.9 2.2s-.3 1.7-.9 2.3-1.4.9-2.3.9-1.6-.3-2.2-.9c-.6-.6-.9-1.4-.9-2.3s.3-1.6.9-2.2Zm-.3 9.3h4.9v22h-4.9V11Zm15.7 22.4c-2.7 0-4.9-.7-6.6-2-1.7-1.3-2.7-3.2-2.9-5.5h4.8c0 1 .6 1.7 1.4 2.3.8.6 1.9.9 3.1.9s2.1-.2 2.8-.7c.7-.5 1-1.1 1-1.9s-.2-1.1-.7-1.5c-.5-.4-1.1-.7-1.8-.9s-1.6-.4-2.4-.5l-2.7-.6c-.9-.2-1.7-.6-2.5-1-.7-.4-1.3-1-1.8-1.8s-.7-1.8-.7-2.9c0-1.9.8-3.6 2.3-4.8s3.5-1.9 6-1.9 4.4.6 6 1.8c1.7 1.2 2.6 2.9 2.9 5h-5c-.1-.8-.5-1.4-1.3-1.9-.7-.5-1.6-.8-2.7-.8s-1.8.2-2.4.6-.9.9-.9 1.6.2 1 .5 1.3c.4.4.8.6 1.4.8s1.3.3 2 .5 1.5.3 2.3.4c.8.1 1.6.4 2.3.7.8.3 1.4.7 2 1.1.6.4 1.1 1.1 1.4 1.9.4.8.5 1.8.5 2.9 0 2-.8 3.6-2.4 4.9-1.6 1.3-3.6 2-6 2Zm23.4-17.6h-5.7v8.8c0 1.3.4 2.3 1.1 3s1.7 1 3 1 1.2 0 1.6-.2V33c-.8.2-1.7.3-2.7.3-2.5 0-4.4-.7-5.9-2.2-1.5-1.5-2.2-3.6-2.2-6.3v-8.9h-4.1v-4.8h4.1V5.2h5v5.9h5.7v4.8Zm9.8 17.6c-2.7 0-4.9-.7-6.6-2-1.7-1.3-2.7-3.2-2.9-5.5h4.8c0 1 .6 1.7 1.4 2.3.8.6 1.9.9 3.1.9s2.1-.2 2.8-.7c.7-.5 1-1.1 1-1.9s-.2-1.1-.7-1.5c-.5-.4-1.1-.7-1.8-.9s-1.6-.4-2.4-.5l-2.7-.6c-.9-.2-1.7-.6-2.5-1-.7-.4-1.3-1-1.8-1.8s-.7-1.8-.7-2.9c0-1.9.8-3.6 2.3-4.8s3.5-1.9 6-1.9 4.4.6 6 1.8c1.7 1.2 2.6 2.9 2.9 5h-5c-.1-.8-.5-1.4-1.3-1.9-.7-.5-1.6-.8-2.7-.8s-1.8.2-2.4.6-.9.9-.9 1.6.2 1 .5 1.3c.4.4.8.6 1.4.8s1.3.3 2 .5 1.5.3 2.3.4c.8.1 1.6.4 2.3.7.8.3 1.4.7 2 1.1s1.1 1.1 1.4 1.9c.4.8.5 1.8.5 2.9 0 2-.8 3.6-2.4 4.9-1.6 1.3-3.6 2-6 2Z" fill="#fff"/>
</svg>
