<svg width="14" height="17" fill="none" xmlns="http://www.w3.org/2000/svg">
  <path fill-rule="evenodd" clip-rule="evenodd" d="M6.968 16.172a.744.744 0 0 1-.44-.145C6.295 15.86.867 11.82.89 6.773c0-3.45 2.726-6.26 6.077-6.26 3.35 0 6.077 2.81 6.077 6.264.022 5.043-5.406 9.082-5.637 9.25a.744.744 0 0 1-.44.145Zm4.557-9.39c0-2.595-2.044-4.702-4.557-4.702-2.514 0-4.558 2.107-4.558 4.697-.016 3.478 3.334 6.598 4.558 7.622 1.224-1.023 4.573-4.143 4.557-7.618Zm-1.52-.006c0 1.728-1.362 3.132-3.038 3.132-1.676 0-3.038-1.404-3.038-3.132 0-1.727 1.362-3.131 3.038-3.131 1.676 0 3.039 1.404 3.039 3.131Zm-1.519 0c0-.863-.681-1.566-1.519-1.566-.838 0-1.519.703-1.519 1.566 0 .864.681 1.566 1.52 1.566.837 0 1.518-.702 1.518-1.566Z" fill="#231E25" />
</svg>
