<svg width="17" height="17" fill="none" xmlns="http://www.w3.org/2000/svg">
  <path d="M8.552.982c4.182 0 7.572 3.583 7.572 8.002 0 4.42-3.39 8.002-7.572 8.002-4.181 0-7.57-3.582-7.57-8.002 0-4.42 3.389-8.002 7.57-8.002Zm0 1.6c-1.606 0-3.146.675-4.282 1.876-1.136 1.2-1.774 2.829-1.774 4.526 0 1.698.638 3.326 1.774 4.527 1.136 1.2 2.676 1.875 4.282 1.875 1.607 0 3.147-.674 4.283-1.875 1.136-1.2 1.774-2.829 1.774-4.527 0-1.697-.638-3.326-1.774-4.526-1.136-1.2-2.676-1.875-4.283-1.875Zm0 8.803c.201 0 .394.084.536.234.142.15.222.354.222.566 0 .212-.08.416-.222.566a.737.737 0 0 1-.536.234.737.737 0 0 1-.535-.234.824.824 0 0 1-.222-.566c0-.212.08-.415.222-.566a.737.737 0 0 1 .535-.234Zm0-7.202c.201 0 .394.085.536.235.142.15.222.353.222.565v4.802c0 .212-.08.415-.222.565a.737.737 0 0 1-.536.235.737.737 0 0 1-.535-.235.824.824 0 0 1-.222-.565V4.983c0-.212.08-.415.222-.565a.737.737 0 0 1 .535-.235Z" fill="#231E25" />
</svg>
